<?xml version="1.0" encoding="UTF-8"?>
<svg id="Capa_1" data-name="Capa 1" xmlns="http://www.w3.org/2000/svg" viewBox="0 0 1300 300">
  <defs>
    <style>
      .cls-1 {
        fill: #fff;
      }
    </style>
  </defs>
  <path class="cls-1" d="M153.42,0h-26.71v31.58h47.52v173.68h47.52V0h-68.33Z"/>
  <path class="cls-1" d="M0,42.16v257.84h174.44l47.3-47.37H47.52V0L0,42.16Z"/>
  <path class="cls-1" d="M864.87,0h-117.38v299.96h118.37c92.8,0,149.47-57,149.47-152S966.69,0,864.87,0ZM861.85,261.51h-68.21V38.51h65.19c77.75,0,110.85,34,110.85,109.51,0,70.99-30.58,113.5-107.84,113.5Z"/>
  <path class="cls-1" d="M1210.18,177.01c21.03-3.13,40.12-14.01,53.49-30.49,13.37-16.48,20.06-37.36,18.73-58.52,0-56-33.11-88.01-107.34-88.01h-121.38v299.96h46.15v-119h64.19l82.7,119h53.27v-5.51l-89.82-117.44ZM1099.84,141.51V39.01h71.22c49.15,0,65.7,16.5,65.7,50.01,0,35.5-23.57,52.51-66.21,52.51h-70.72Z"/>
  <path class="cls-1" d="M442.92,0h-46.15v299.96h186.6v-41.5h-140.45V0Z"/>
  <path class="cls-1" d="M684.96,0h-93.78v36.83h47.63v263.17h46.15V0Z"/>
</svg>